<?xml version="1.0" standalone="no"?>
<!DOCTYPE svg PUBLIC "-//W3C//DTD SVG 20010904//EN"
 "http://www.w3.org/TR/2001/REC-SVG-20010904/DTD/svg10.dtd">
<svg version="1.0" xmlns="http://www.w3.org/2000/svg"
 width="872.000000pt" height="872.000000pt" viewBox="0 0 872.000000 872.000000"
 preserveAspectRatio="xMidYMid meet">
<metadata>
Created by potrace 1.11, written by Peter Selinger 2001-2013
</metadata>
<g transform="translate(0.000000,872.000000) scale(0.100000,-0.100000)"
fill="#000000" stroke="none">
<path d="M4089 8636 c-2 -2 -47 -6 -99 -10 -139 -10 -259 -24 -360 -42 -14 -2
-40 -7 -59 -10 -50 -8 -71 -13 -89 -18 -9 -3 -35 -7 -57 -11 -22 -3 -53 -10
-70 -15 -16 -5 -41 -11 -55 -14 -14 -3 -50 -12 -80 -21 -30 -9 -65 -18 -78
-21 -13 -2 -44 -12 -69 -20 -25 -9 -53 -17 -62 -19 -27 -5 -240 -85 -354 -132
-142 -60 -387 -184 -510 -258 -54 -33 -106 -64 -115 -70 -31 -17 -137 -88
-142 -95 -3 -3 -22 -16 -42 -29 -21 -12 -38 -27 -38 -32 0 -6 -4 -7 -10 -4 -5
3 -10 1 -10 -4 0 -6 -6 -11 -14 -11 -8 0 -16 -3 -18 -8 -1 -4 -23 -23 -48 -42
-25 -19 -50 -39 -56 -45 -6 -5 -26 -21 -43 -35 -17 -14 -47 -40 -66 -57 -20
-18 -37 -33 -40 -33 -17 0 -405 -391 -405 -407 0 -3 -8 -13 -18 -22 -10 -9
-36 -38 -57 -66 -22 -27 -43 -52 -46 -55 -3 -3 -35 -45 -72 -95 -36 -49 -72
-97 -79 -106 -17 -21 -37 -51 -45 -69 -4 -8 -9 -17 -13 -20 -3 -3 -20 -27 -38
-55 -17 -27 -35 -55 -39 -61 -5 -5 -14 -21 -22 -35 -105 -180 -198 -359 -254
-489 -58 -136 -60 -144 -59 -152 1 -5 -3 -8 -8 -8 -6 0 -10 -6 -10 -13 0 -7
-14 -48 -31 -92 -84 -220 -178 -590 -214 -845 -3 -25 -8 -56 -10 -70 -22 -151
-30 -296 -30 -555 1 -281 6 -367 36 -575 19 -132 23 -158 34 -212 4 -15 8 -39
10 -55 3 -25 16 -81 31 -138 3 -11 7 -32 10 -47 3 -14 14 -57 25 -95 11 -37
22 -75 24 -83 2 -8 8 -27 14 -42 6 -16 8 -28 5 -28 -4 0 -2 -6 3 -12 5 -7 18
-40 28 -73 10 -33 20 -64 24 -70 3 -5 6 -14 7 -20 4 -18 49 -140 54 -145 3 -3
16 -32 29 -65 52 -132 244 -506 263 -513 4 -2 8 -9 8 -15 0 -7 20 -42 45 -79
25 -37 45 -70 45 -73 0 -3 5 -11 10 -18 6 -7 43 -58 83 -114 40 -56 81 -112
92 -125 11 -13 33 -41 50 -63 30 -40 58 -75 105 -127 14 -15 50 -55 80 -89
102 -114 334 -339 351 -339 5 0 9 -3 9 -7 0 -5 39 -39 88 -78 48 -38 92 -74
99 -80 7 -5 18 -15 25 -20 78 -63 400 -275 417 -275 5 0 11 -3 13 -7 11 -27
591 -303 663 -317 6 -1 15 -4 20 -8 30 -17 417 -131 519 -152 189 -40 301 -59
402 -71 33 -4 70 -9 84 -11 167 -26 679 -26 915 0 91 10 179 22 225 31 14 3
39 7 56 10 17 2 66 12 110 20 43 9 90 18 104 21 14 3 34 8 45 11 11 4 22 7 25
8 3 1 19 4 35 8 17 4 39 9 50 12 40 8 251 75 305 95 30 12 60 22 65 24 89 20
569 245 657 307 14 11 29 19 32 19 9 0 200 121 222 141 11 11 24 19 28 19 13
0 304 220 356 270 15 14 60 54 99 89 93 83 206 196 301 301 41 46 83 92 93
102 9 10 17 22 17 27 0 5 4 11 8 13 11 4 148 179 187 238 17 25 33 47 36 50 3
3 14 20 24 38 11 17 23 32 27 32 4 0 8 5 8 11 0 6 10 25 23 42 12 17 27 39 32
49 6 9 33 57 62 105 28 48 66 117 85 153 18 36 36 67 41 68 4 2 7 8 7 14 0 6
20 52 44 102 24 50 55 120 70 156 15 36 31 74 36 85 35 81 119 335 150 455 7
25 14 52 16 60 10 39 73 339 78 370 10 66 16 110 22 148 6 40 8 58 21 202 10
118 10 567 0 675 -4 44 -9 98 -11 120 -2 22 -7 65 -11 95 -4 30 -9 64 -10 75
-3 17 -15 88 -31 175 -2 14 -7 40 -10 59 -3 19 -10 45 -15 58 -5 13 -6 23 -4
23 2 0 0 11 -5 26 -6 14 -12 39 -16 57 -6 35 -51 203 -61 227 -3 8 -7 20 -9
27 -6 31 -28 89 -37 101 -5 6 -7 12 -3 12 3 0 -3 24 -15 53 -11 28 -22 59 -24
67 -3 15 -29 75 -66 157 -10 24 -19 46 -19 50 0 10 -162 337 -170 343 -3 3
-12 20 -19 38 -8 17 -16 32 -20 32 -3 0 -17 23 -30 50 -14 28 -29 50 -33 50
-4 0 -8 4 -8 9 0 9 -58 109 -70 121 -3 3 -18 25 -35 50 -39 59 -88 123 -100
132 -5 4 -6 8 -1 8 5 0 -1 8 -12 19 -12 10 -22 21 -22 25 0 10 -175 219 -256
305 -149 159 -325 325 -428 404 -16 12 -37 30 -47 40 -11 9 -19 15 -19 12 0
-3 -8 3 -18 13 -29 26 -53 45 -107 82 -28 18 -52 36 -55 39 -11 13 -101 71
-109 71 -5 0 -11 4 -13 8 -1 4 -43 33 -93 64 -258 160 -577 311 -865 408 -52
17 -102 34 -110 37 -8 4 -20 7 -26 8 -6 2 -38 11 -70 20 -33 9 -66 19 -74 21
-8 2 -51 12 -95 24 -44 11 -96 23 -115 26 -19 3 -44 8 -55 11 -11 3 -30 8 -42
10 -30 4 -60 9 -103 17 -90 15 -115 19 -240 31 -36 4 -76 9 -90 12 -27 5 -586
14 -591 9z"/>
</g>
</svg>
